<svg xmlns="http://www.w3.org/2000/svg" width="71.195" height="68.657" viewBox="0 0 71.195 68.657">
  <g id="Group_65898" data-name="Group 65898" transform="translate(-202.237 -170.078)">
    <path id="Path_1791" data-name="Path 1791" d="M257.07,221.714c3.646-3.477,8.384-8.176,10.769-10.818a19.432,19.432,0,0,0,0-27.282c-2.586-2.865-7.943-8.152-11.67-11.672l-1.973-1.864-1.973,1.864c-3.727,3.521-9.083,8.809-11.669,11.672a23.851,23.851,0,0,0-2.721,3.647,23.8,23.8,0,0,0-2.721-3.647c-2.585-2.863-7.942-8.151-11.669-11.672l-1.973-1.864-1.973,1.864c-3.727,3.521-9.083,8.809-11.669,11.672a19.43,19.43,0,0,0,0,27.282c2.384,2.641,7.122,7.34,10.769,10.818v11.275H205.11v5.746h65.45v-5.746H257.07Zm0-40.915c2.532,2.494,5.011,5.011,6.505,6.666a18.732,18.732,0,0,1,1.336,1.664l-7.841,7.841Zm0,24.3,10.358-10.358a12.55,12.55,0,0,1,.259,2.518,14.818,14.818,0,0,1-4.112,9.79c-1.494,1.655-3.973,4.173-6.505,6.666Zm-12.25-17.63c1.494-1.654,3.973-4.172,6.5-6.666V196.97l-7.84-7.841A18.727,18.727,0,0,1,244.819,187.465Zm-3.852,7.273L251.324,205.1v8.616c-2.531-2.494-5.01-5.011-6.5-6.666a14.818,14.818,0,0,1-4.112-9.79A12.488,12.488,0,0,1,240.967,194.738ZM224.345,180.8c2.532,2.493,5.011,5.011,6.5,6.665a18.731,18.731,0,0,1,1.337,1.664l-7.841,7.841Zm0,24.3L234.7,194.738a12.549,12.549,0,0,1,.259,2.518,14.814,14.814,0,0,1-4.113,9.79c-1.493,1.655-3.973,4.172-6.5,6.666Zm-12.25-17.63c1.493-1.654,3.973-4.172,6.5-6.665v16.17l-7.841-7.841A18.877,18.877,0,0,1,212.095,187.465Zm0,19.581a14.818,14.818,0,0,1-4.112-9.79,12.548,12.548,0,0,1,.259-2.518L218.6,205.1v8.616C216.067,211.217,213.588,208.7,212.095,207.045Zm12.25,14.8,13.49-13.464,13.489,13.464v11.142H240.905v-7.265h-6.142v7.265H224.345Z" fill="#82be00"/>
  </g>
</svg>
